<mxfile host="app.diagrams.net" modified="2024-04-11T10:32:32.954Z" agent="Mozilla/5.0 (Windows NT 10.0; Win64; x64) AppleWebKit/537.36 (KHTML, like Gecko) Chrome/123.0.0.0 Safari/537.36" etag="1DWt2a-8ilppcOi5c6ej" version="24.2.3" type="device">
  <diagram name="Page-1" id="hJW0rLupJVPPliPzP_hY">
    <mxGraphModel dx="712" dy="856" grid="1" gridSize="10" guides="1" tooltips="1" connect="1" arrows="1" fold="1" page="1" pageScale="1" pageWidth="827" pageHeight="1169" math="0" shadow="0">
      <root>
        <mxCell id="0" />
        <mxCell id="1" parent="0" />
        <mxCell id="dQHOm6ySGT-bkJaDgD7T-5" value="" style="edgeStyle=orthogonalEdgeStyle;rounded=0;orthogonalLoop=1;jettySize=auto;html=1;" edge="1" parent="1" source="dQHOm6ySGT-bkJaDgD7T-1" target="dQHOm6ySGT-bkJaDgD7T-4">
          <mxGeometry relative="1" as="geometry" />
        </mxCell>
        <mxCell id="dQHOm6ySGT-bkJaDgD7T-1" value="Start" style="ellipse;whiteSpace=wrap;html=1;" vertex="1" parent="1">
          <mxGeometry x="320" y="20" width="120" height="80" as="geometry" />
        </mxCell>
        <mxCell id="dQHOm6ySGT-bkJaDgD7T-7" value="" style="edgeStyle=orthogonalEdgeStyle;rounded=0;orthogonalLoop=1;jettySize=auto;html=1;" edge="1" parent="1" source="dQHOm6ySGT-bkJaDgD7T-4" target="dQHOm6ySGT-bkJaDgD7T-6">
          <mxGeometry relative="1" as="geometry" />
        </mxCell>
        <mxCell id="dQHOm6ySGT-bkJaDgD7T-4" value="Sum of squares = 0&lt;div&gt;sum = 0&lt;/div&gt;&lt;div&gt;i = 1&lt;/div&gt;" style="whiteSpace=wrap;html=1;" vertex="1" parent="1">
          <mxGeometry x="290" y="190" width="180" height="70" as="geometry" />
        </mxCell>
        <mxCell id="dQHOm6ySGT-bkJaDgD7T-9" value="" style="edgeStyle=orthogonalEdgeStyle;rounded=0;orthogonalLoop=1;jettySize=auto;html=1;" edge="1" parent="1" source="dQHOm6ySGT-bkJaDgD7T-6" target="dQHOm6ySGT-bkJaDgD7T-8">
          <mxGeometry relative="1" as="geometry" />
        </mxCell>
        <mxCell id="dQHOm6ySGT-bkJaDgD7T-10" value="Yes" style="edgeLabel;html=1;align=center;verticalAlign=middle;resizable=0;points=[];" vertex="1" connectable="0" parent="dQHOm6ySGT-bkJaDgD7T-9">
          <mxGeometry x="-0.4222" y="1" relative="1" as="geometry">
            <mxPoint as="offset" />
          </mxGeometry>
        </mxCell>
        <mxCell id="dQHOm6ySGT-bkJaDgD7T-13" value="" style="edgeStyle=orthogonalEdgeStyle;rounded=0;orthogonalLoop=1;jettySize=auto;html=1;" edge="1" parent="1" source="dQHOm6ySGT-bkJaDgD7T-6" target="dQHOm6ySGT-bkJaDgD7T-12">
          <mxGeometry relative="1" as="geometry" />
        </mxCell>
        <mxCell id="dQHOm6ySGT-bkJaDgD7T-14" value="No" style="edgeLabel;html=1;align=center;verticalAlign=middle;resizable=0;points=[];" vertex="1" connectable="0" parent="dQHOm6ySGT-bkJaDgD7T-13">
          <mxGeometry x="-0.5859" relative="1" as="geometry">
            <mxPoint as="offset" />
          </mxGeometry>
        </mxCell>
        <mxCell id="dQHOm6ySGT-bkJaDgD7T-6" value="is i &amp;lt;= 100?" style="rhombus;whiteSpace=wrap;html=1;" vertex="1" parent="1">
          <mxGeometry x="340" y="335" width="80" height="80" as="geometry" />
        </mxCell>
        <mxCell id="dQHOm6ySGT-bkJaDgD7T-11" style="edgeStyle=orthogonalEdgeStyle;rounded=0;orthogonalLoop=1;jettySize=auto;html=1;entryX=0;entryY=0.5;entryDx=0;entryDy=0;" edge="1" parent="1" source="dQHOm6ySGT-bkJaDgD7T-8" target="dQHOm6ySGT-bkJaDgD7T-6">
          <mxGeometry relative="1" as="geometry">
            <mxPoint x="190" y="360" as="targetPoint" />
            <Array as="points">
              <mxPoint x="150" y="553" />
              <mxPoint x="150" y="375" />
            </Array>
          </mxGeometry>
        </mxCell>
        <mxCell id="dQHOm6ySGT-bkJaDgD7T-8" value="sum of squares = sum of squares +i*i&lt;div&gt;sum = sum = i&amp;nbsp;&lt;/div&gt;&lt;div&gt;i = i=1&lt;/div&gt;" style="whiteSpace=wrap;html=1;" vertex="1" parent="1">
          <mxGeometry x="230" y="505" width="300" height="95" as="geometry" />
        </mxCell>
        <mxCell id="dQHOm6ySGT-bkJaDgD7T-16" value="" style="edgeStyle=orthogonalEdgeStyle;rounded=0;orthogonalLoop=1;jettySize=auto;html=1;" edge="1" parent="1" source="dQHOm6ySGT-bkJaDgD7T-12" target="dQHOm6ySGT-bkJaDgD7T-15">
          <mxGeometry relative="1" as="geometry" />
        </mxCell>
        <mxCell id="dQHOm6ySGT-bkJaDgD7T-12" value="squares of sum = sum * sum" style="whiteSpace=wrap;html=1;" vertex="1" parent="1">
          <mxGeometry x="460" y="620" width="270" height="80" as="geometry" />
        </mxCell>
        <mxCell id="dQHOm6ySGT-bkJaDgD7T-18" value="" style="edgeStyle=orthogonalEdgeStyle;rounded=0;orthogonalLoop=1;jettySize=auto;html=1;" edge="1" parent="1" source="dQHOm6ySGT-bkJaDgD7T-15" target="dQHOm6ySGT-bkJaDgD7T-17">
          <mxGeometry relative="1" as="geometry" />
        </mxCell>
        <mxCell id="dQHOm6ySGT-bkJaDgD7T-15" value="diff = square of sum - sum of square" style="whiteSpace=wrap;html=1;" vertex="1" parent="1">
          <mxGeometry x="220" y="770" width="220" height="100" as="geometry" />
        </mxCell>
        <mxCell id="dQHOm6ySGT-bkJaDgD7T-22" style="edgeStyle=orthogonalEdgeStyle;rounded=0;orthogonalLoop=1;jettySize=auto;html=1;entryX=0.5;entryY=0;entryDx=0;entryDy=0;" edge="1" parent="1" source="dQHOm6ySGT-bkJaDgD7T-17" target="dQHOm6ySGT-bkJaDgD7T-21">
          <mxGeometry relative="1" as="geometry" />
        </mxCell>
        <mxCell id="dQHOm6ySGT-bkJaDgD7T-17" value="display diff" style="shape=parallelogram;perimeter=parallelogramPerimeter;whiteSpace=wrap;html=1;fixedSize=1;" vertex="1" parent="1">
          <mxGeometry x="270" y="970" width="120" height="60" as="geometry" />
        </mxCell>
        <mxCell id="dQHOm6ySGT-bkJaDgD7T-21" value="Stop" style="ellipse;whiteSpace=wrap;html=1;" vertex="1" parent="1">
          <mxGeometry x="270" y="1070" width="120" height="80" as="geometry" />
        </mxCell>
      </root>
    </mxGraphModel>
  </diagram>
</mxfile>
